
mtllib barrierSimple.mtl

#
# object barrier
#

v  -8.4649 0.0000 51.1811
v  -0.0000 0.0468 54.0540
v  8.4649 0.0000 51.1811
v  -8.4649 0.0000 43.3071
v  8.4649 0.0000 43.3071
v  -8.4649 0.0000 39.3701
v  8.4649 0.0000 39.3701
v  -8.4649 0.0000 -39.3701
v  8.4649 0.0000 -39.3701
v  -8.4649 0.0000 -43.3071
v  8.4649 0.0000 -43.3071
v  -8.4649 0.0000 -51.1811
v  -0.0000 0.0290 -54.3357
v  8.4649 0.0000 -51.1811
v  -5.6432 0.0285 52.1839
v  5.6432 0.0285 52.1839
v  -5.6432 39.3701 43.3071
v  -0.0000 41.1462 45.5730
v  5.6432 39.3701 43.3071
v  -5.6432 39.3701 39.3701
v  -0.0000 41.1462 39.3701
v  5.6432 39.3701 39.3701
v  -5.6432 39.3701 -39.3701
v  -0.0000 41.1462 -39.3701
v  5.6432 39.3701 -39.3701
v  -5.6432 39.3701 -43.3071
v  -0.0000 41.1462 -46.1536
v  5.6432 39.3701 -43.3071
v  -5.6432 0.0180 -52.2763
v  5.6432 0.0180 -52.2355
# 30 vertices

vn -0.3242 0.2001 0.9246
vn 0.0052 0.2102 0.9776
vn 0.0029 0.7570 0.6534
vn -0.7364 0.5549 0.3870
vn 0.0052 0.2102 0.9776
vn 0.3184 0.2086 0.9247
vn 0.7356 0.5521 0.3927
vn 0.0029 0.7570 0.6534
vn -0.7364 0.5549 0.3870
vn 0.0029 0.7570 0.6534
vn -0.0000 1.0000 -0.0000
vn -0.7846 0.6200 -0.0000
vn 0.0029 0.7570 0.6534
vn 0.7356 0.5521 0.3927
vn 0.7846 0.6200 -0.0000
vn -0.0000 1.0000 -0.0000
vn -0.7846 0.6200 -0.0000
vn -0.0000 1.0000 -0.0000
vn 0.0000 1.0000 0.0000
vn -0.7846 0.6200 -0.0000
vn -0.0000 1.0000 -0.0000
vn 0.7846 0.6200 -0.0000
vn 0.7846 0.6200 0.0000
vn 0.0000 1.0000 0.0000
vn -0.7846 0.6200 -0.0000
vn 0.0000 1.0000 0.0000
vn -0.0043 0.7429 -0.6694
vn -0.7496 0.5518 -0.3654
vn 0.0000 1.0000 0.0000
vn 0.7846 0.6200 0.0000
vn 0.7505 0.5556 -0.3577
vn -0.0043 0.7429 -0.6694
vn -0.7496 0.5518 -0.3654
vn -0.0043 0.7429 -0.6694
vn -0.0047 0.2074 -0.9782
vn -0.3449 0.2086 -0.9152
vn -0.0043 0.7429 -0.6694
vn 0.7505 0.5556 -0.3577
vn 0.3508 0.1956 -0.9158
vn -0.0047 0.2074 -0.9782
vn 0.7827 0.1755 0.5971
vn 0.9974 0.0715 -0.0000
vn 0.7356 0.5521 0.3927
vn 0.3184 0.2086 0.9247
vn 0.9974 0.0715 -0.0000
vn 0.9974 0.0715 -0.0000
vn 0.7846 0.6200 -0.0000
vn 0.7356 0.5521 0.3927
vn 0.9974 0.0715 -0.0000
vn 0.9974 0.0715 -0.0000
vn 0.7846 0.6200 0.0000
vn 0.7846 0.6200 -0.0000
vn 0.9974 0.0715 -0.0000
vn 0.9974 0.0715 -0.0000
vn 0.7505 0.5556 -0.3577
vn 0.7846 0.6200 0.0000
vn -0.7907 0.1741 -0.5870
vn -0.9974 0.0715 -0.0000
vn -0.7496 0.5518 -0.3654
vn -0.3449 0.2086 -0.9152
vn -0.9974 0.0715 -0.0000
vn -0.9974 0.0715 -0.0000
vn -0.7846 0.6200 -0.0000
vn -0.7496 0.5518 -0.3654
vn -0.9974 0.0715 -0.0000
vn -0.9974 0.0715 -0.0000
vn -0.7846 0.6200 -0.0000
vn -0.7846 0.6200 -0.0000
vn -0.9974 0.0715 -0.0000
vn -0.9974 0.0715 -0.0000
vn -0.7364 0.5549 0.3870
vn -0.7846 0.6200 -0.0000
vn -0.7827 0.1755 0.5971
vn -0.3242 0.2001 0.9246
vn -0.7364 0.5549 0.3870
vn -0.7827 0.1755 0.5971
vn -0.7364 0.5549 0.3870
vn -0.9974 0.0715 -0.0000
vn 0.7869 0.1748 -0.5918
vn 0.3508 0.1956 -0.9158
vn 0.7505 0.5556 -0.3577
vn 0.7869 0.1748 -0.5918
vn 0.7505 0.5556 -0.3577
vn 0.9974 0.0715 -0.0000
# 84 vertex normals

vt 0.4137 0.0005 0.9564
vt 0.5000 0.0005 0.9995
vt 0.5000 0.9995 0.9995
vt 0.4137 0.9995 0.9564
vt 0.5882 0.0005 0.9564
vt 0.5882 0.9995 0.9564
vt 0.9995 0.0005 0.0005
vt 0.9995 0.9995 0.0005
vt 0.0005 0.9995 0.0005
vt 0.0005 0.0005 0.0005
vt 0.5000 0.5775 0.9995
vt 0.4137 0.9200 0.9564
vt 0.5882 0.9200 0.9564
vt 0.5000 0.9995 0.9995
vt 0.4137 0.9995 0.9564
vt 0.5882 0.9995 0.9564
vt 0.9995 0.7911 0.0005
vt 0.9995 0.9200 0.0005
vt 0.9995 0.9995 0.0005
vt 0.0005 0.9995 0.0005
vt 0.0005 0.9200 0.0005
vt 0.0005 0.7911 0.0005
vt 0.4377 0.0011 0.0012
vt 0.5000 0.0005 0.0016
vt 0.5056 0.9847 0.9995
vt 0.4415 0.9844 0.9564
vt 0.5548 0.0011 0.0012
vt 0.5585 0.9844 0.9564
vt 0.4122 0.0001 0.0005
vt 0.4156 0.2642 0.9564
vt 0.5019 0.2642 0.9995
vt 0.5000 0.4270 0.9995
vt 0.4156 0.3594 0.9564
vt 0.5957 0.2660 0.9564
vt 0.5957 0.3612 0.9564
vt 1.0014 0.2642 0.0005
vt 1.0014 0.3594 0.0005
vt 0.0043 0.4744 0.0005
vt 0.0024 0.3594 0.0005
vt 0.0024 0.2642 0.0005
vt 1.0033 0.4744 0.0005
vt 0.4035 0.0061 0.9564
vt 0.5019 0.0060 0.9995
vt 0.5000 0.9053 0.0012
vt 0.3978 0.9052 0.0009
vt 0.5965 0.0061 0.9564
vt 0.5909 0.9072 0.0009
vt 0.6297 0.9058 0.0005
vt 0.9971 0.7746 0.0061
vt 0.0068 0.4904 0.0058
# 50 texture coords

g barrier
usemtl Material__25
s 1
f 15/23/1 2/24/2 18/25/3 17/26/4 
f 2/24/5 16/27/6 19/28/7 18/25/8 
f 17/12/9 18/11/10 21/14/11 20/15/12 
f 18/11/13 19/13/14 22/16/15 21/14/16 
f 20/1/17 21/2/18 24/3/19 23/4/20 
f 21/2/21 22/5/22 25/6/23 24/3/24 
f 23/30/25 24/31/26 27/32/27 26/33/28 
f 24/31/29 25/34/30 28/35/31 27/32/32 
f 26/42/33 27/43/34 13/44/35 29/45/36 
f 27/43/37 28/46/38 30/47/39 13/44/40 
f 3/17/41 5/18/42 19/13/43 16/49/44 
f 5/18/45 7/19/46 22/16/47 19/13/48 
f 7/7/49 9/8/50 25/6/51 22/5/52 
f 9/36/53 11/37/54 28/35/55 25/34/56 
f 12/38/57 10/39/58 26/33/59 29/50/60 
f 10/39/61 8/40/62 23/30/63 26/33/64 
f 8/9/65 6/10/66 20/1/67 23/4/68 
f 6/20/69 4/21/70 17/12/71 20/15/72 
f 1/29/73 15/23/74 17/26/75 
f 1/22/76 17/12/77 4/21/78 
f 14/48/79 30/47/80 28/46/81 
f 14/41/82 28/35/83 11/37/84 
# 18 polygons - 4 triangles

