

mtllib barrier.mtl

#
# object barrier
#

v  -0.0000 -0.2655 59.0146
v  -15.8885 -0.3155 46.2418
v  15.8885 -0.3155 46.2418
v  -15.8885 -0.3155 39.3701
v  15.8885 -0.3155 39.3701
v  -15.8885 -0.3155 -39.3701
v  15.8885 -0.3155 -39.3701
v  -15.8885 -0.3155 -46.2383
v  15.8885 -0.3155 -46.2383
v  -0.0000 -0.2845 -59.2668
v  -10.5924 -0.2851 57.0179
v  10.5924 -0.2851 57.0179
v  -5.0570 37.7003 43.3071
v  -0.0000 39.4764 45.5730
v  5.0570 37.7003 43.3071
v  -5.0570 37.7003 39.3701
v  -0.0000 39.4764 39.3701
v  5.0570 37.7003 39.3701
v  -5.0570 37.7003 -39.3701
v  -0.0000 39.4764 -39.3701
v  5.0570 37.7003 -39.3701
v  -5.0570 37.7003 -43.3071
v  -0.0000 39.4764 -46.1536
v  5.0570 37.7003 -43.3071
v  -10.5924 -0.2963 -57.0680
v  10.5924 -0.2963 -57.0244
v  -0.0000 19.8502 49.9675
v  -5.0570 19.8502 47.7114
v  5.0570 19.8502 47.7114
v  -0.0000 19.8502 -50.3913
v  -5.0570 19.8502 -47.7561
v  5.0570 19.8502 -47.7358
v  6.3107 19.8502 43.3071
v  6.3107 19.8502 39.3701
v  6.3107 19.8502 -39.3701
v  6.3107 19.8502 -43.3071
v  -6.3107 19.8502 -43.3071
v  -6.3107 19.8502 -39.3701
v  -6.3107 19.8502 39.3701
v  -6.3107 19.8502 43.3071
v  -0.0000 10.2429 56.8462
v  10.5924 10.2429 54.6424
v  -10.5924 10.2429 -54.6659
v  14.5583 10.2429 46.2418
v  14.5583 10.2429 39.3701
v  14.5583 10.2429 -39.3701
v  14.5583 10.2429 -46.2383
v  -14.5583 10.2429 -46.2383
v  -14.5583 10.2429 -39.3701
v  -14.5583 10.2429 39.3701
v  -14.5583 10.2429 46.2418
v  -10.5924 10.2429 54.6424
v  -0.0000 10.2429 -57.1720
v  10.5924 10.2429 -54.6332
# 54 vertices

vn -0.5723 0.1752 0.8011
vn 0.0000 0.2021 0.9794
vn 0.0000 0.3955 0.9184
vn -0.5884 0.4045 0.7001
vn 0.5723 0.1752 0.8011
vn 0.5884 0.4045 0.7001
vn 0.0000 0.3955 0.9184
vn 0.0000 0.2021 0.9794
vn -0.0000 1.0000 -0.0000
vn -0.7951 0.6064 -0.0000
vn -0.7533 0.5410 0.3740
vn 0.0000 0.7580 0.6522
vn 0.7951 0.6064 -0.0000
vn -0.0000 1.0000 -0.0000
vn 0.0000 0.7580 0.6522
vn 0.7533 0.5410 0.3740
vn -0.0000 1.0000 0.0000
vn -0.7951 0.6064 0.0000
vn -0.7951 0.6064 -0.0000
vn -0.0000 1.0000 -0.0000
vn 0.7951 0.6064 0.0000
vn -0.0000 1.0000 0.0000
vn -0.0000 1.0000 -0.0000
vn 0.7951 0.6064 -0.0000
vn -0.0000 0.7420 -0.6704
vn -0.7672 0.5409 -0.3447
vn -0.7951 0.6064 0.0000
vn -0.0000 1.0000 0.0000
vn 0.7672 0.5408 -0.3448
vn -0.0000 0.7420 -0.6704
vn -0.0000 1.0000 0.0000
vn 0.7951 0.6064 0.0000
vn -0.7672 0.5409 -0.3447
vn -0.0000 0.7420 -0.6704
vn 0.0013 0.4912 -0.8710
vn -0.6675 0.4813 -0.5681
vn 0.7672 0.5408 -0.3448
vn 0.6685 0.4804 -0.5678
vn 0.0013 0.4912 -0.8710
vn -0.0000 0.7420 -0.6704
vn 0.9689 0.1184 0.2174
vn 0.8974 0.3928 0.2011
vn 0.5884 0.4045 0.7001
vn 0.5723 0.1752 0.8011
vn 0.9922 0.1250 -0.0000
vn 0.9142 0.4053 -0.0000
vn 0.8974 0.3928 0.2011
vn 0.9689 0.1184 0.2174
vn 0.9922 0.1250 -0.0000
vn 0.9142 0.4053 -0.0000
vn 0.9142 0.4053 -0.0000
vn 0.9922 0.1250 -0.0000
vn 0.9689 0.1185 -0.2174
vn 0.8974 0.3927 -0.2011
vn 0.9142 0.4053 -0.0000
vn 0.9922 0.1250 -0.0000
vn -0.9690 0.1185 -0.2167
vn -0.8976 0.3927 -0.2004
vn -0.5996 0.4025 -0.6917
vn -0.5819 0.1729 -0.7947
vn -0.9922 0.1250 -0.0000
vn -0.9142 0.4053 -0.0000
vn -0.8976 0.3927 -0.2004
vn -0.9690 0.1185 -0.2167
vn -0.9922 0.1250 -0.0000
vn -0.9142 0.4053 -0.0000
vn -0.9142 0.4053 -0.0000
vn -0.9922 0.1250 -0.0000
vn -0.9689 0.1184 0.2174
vn -0.8974 0.3928 0.2011
vn -0.9142 0.4053 -0.0000
vn -0.9922 0.1250 -0.0000
vn 0.0000 0.4823 0.8760
vn 0.0000 0.7580 0.6522
vn -0.7533 0.5410 0.3740
vn -0.6456 0.4874 0.5879
vn 0.7533 0.5410 0.3740
vn 0.0000 0.7580 0.6522
vn 0.0000 0.4823 0.8760
vn 0.6456 0.4874 0.5879
vn 0.0013 0.4912 -0.8710
vn 0.0015 0.3901 -0.9208
vn -0.5996 0.4025 -0.6917
vn -0.6675 0.4813 -0.5681
vn 0.6001 0.4020 -0.6916
vn 0.0015 0.3901 -0.9208
vn 0.0013 0.4912 -0.8710
vn 0.6685 0.4804 -0.5678
vn 0.9092 0.3985 0.1210
vn 0.7533 0.5410 0.3740
vn 0.6456 0.4874 0.5879
vn 0.7951 0.6064 -0.0000
vn 0.7533 0.5410 0.3740
vn 0.9092 0.3985 0.1210
vn 0.9250 0.3800 -0.0000
vn 0.7951 0.6064 0.0000
vn 0.7951 0.6064 -0.0000
vn 0.9250 0.3800 -0.0000
vn 0.9250 0.3800 0.0000
vn 0.7672 0.5408 -0.3448
vn 0.7951 0.6064 0.0000
vn 0.9250 0.3800 0.0000
vn 0.9093 0.3984 -0.1204
vn -0.9094 0.3983 -0.1199
vn -0.7672 0.5409 -0.3447
vn -0.6675 0.4813 -0.5681
vn -0.7951 0.6064 0.0000
vn -0.7672 0.5409 -0.3447
vn -0.9094 0.3983 -0.1199
vn -0.9250 0.3800 -0.0000
vn -0.7951 0.6064 -0.0000
vn -0.7951 0.6064 0.0000
vn -0.9250 0.3800 -0.0000
vn -0.9250 0.3800 -0.0000
vn -0.7533 0.5410 0.3740
vn -0.7951 0.6064 -0.0000
vn -0.9250 0.3800 -0.0000
vn -0.9092 0.3985 0.1210
vn 0.0000 0.4823 0.8760
vn -0.6456 0.4874 0.5879
vn -0.5884 0.4045 0.7001
vn 0.0000 0.3955 0.9184
vn 0.5884 0.4045 0.7001
vn 0.6456 0.4874 0.5879
vn 0.0000 0.4823 0.8760
vn 0.0000 0.3955 0.9184
vn 0.8974 0.3928 0.2011
vn 0.9092 0.3985 0.1210
vn 0.6456 0.4874 0.5879
vn 0.5884 0.4045 0.7001
vn 0.9250 0.3800 -0.0000
vn 0.9092 0.3985 0.1210
vn 0.8974 0.3928 0.2011
vn 0.9142 0.4053 -0.0000
vn 0.9250 0.3800 0.0000
vn 0.9250 0.3800 -0.0000
vn 0.9142 0.4053 -0.0000
vn 0.9142 0.4053 -0.0000
vn 0.9093 0.3984 -0.1204
vn 0.9250 0.3800 0.0000
vn 0.9142 0.4053 -0.0000
vn 0.8974 0.3927 -0.2011
vn -0.8976 0.3927 -0.2004
vn -0.9094 0.3983 -0.1199
vn -0.6675 0.4813 -0.5681
vn -0.5996 0.4025 -0.6917
vn -0.9250 0.3800 -0.0000
vn -0.9094 0.3983 -0.1199
vn -0.8976 0.3927 -0.2004
vn -0.9142 0.4053 -0.0000
vn -0.9250 0.3800 -0.0000
vn -0.9250 0.3800 -0.0000
vn -0.9142 0.4053 -0.0000
vn -0.9142 0.4053 -0.0000
vn -0.9092 0.3985 0.1210
vn -0.9250 0.3800 -0.0000
vn -0.9142 0.4053 -0.0000
vn -0.8974 0.3928 0.2011
vn 0.0015 0.3901 -0.9208
vn 0.0019 0.1952 -0.9808
vn -0.5819 0.1729 -0.7947
vn -0.5996 0.4025 -0.6917
vn 0.5829 0.1722 -0.7941
vn 0.0019 0.1952 -0.9808
vn 0.0015 0.3901 -0.9208
vn 0.6001 0.4020 -0.6916
vn -0.7533 0.5410 0.3740
vn -0.9092 0.3985 0.1210
vn -0.6456 0.4874 0.5879
vn -0.5884 0.4045 0.7001
vn -0.6456 0.4874 0.5879
vn -0.8974 0.3928 0.2011
vn -0.8974 0.3928 0.2011
vn -0.6456 0.4874 0.5879
vn -0.9092 0.3985 0.1210
vn -0.5723 0.1752 0.8011
vn -0.5884 0.4045 0.7001
vn -0.9689 0.1184 0.2174
vn -0.5884 0.4045 0.7001
vn -0.8974 0.3928 0.2011
vn -0.9689 0.1184 0.2174
vn 0.6685 0.4804 -0.5678
vn 0.7672 0.5408 -0.3448
vn 0.9093 0.3984 -0.1204
vn 0.6001 0.4020 -0.6916
vn 0.6685 0.4804 -0.5678
vn 0.8974 0.3927 -0.2011
vn 0.6685 0.4804 -0.5678
vn 0.9093 0.3984 -0.1204
vn 0.8974 0.3927 -0.2011
vn 0.5829 0.1722 -0.7941
vn 0.6001 0.4020 -0.6916
vn 0.9689 0.1185 -0.2174
vn 0.9689 0.1185 -0.2174
vn 0.6001 0.4020 -0.6916
vn 0.8974 0.3927 -0.2011
# 196 vertex normals

vt 0.4137 0.0005 0.9564
vt 0.5000 0.0005 0.9995
vt 0.5000 0.9995 0.9995
vt 0.4137 0.9995 0.9564
vt 0.5882 0.0005 0.9564
vt 0.5882 0.9995 0.9564
vt 0.9995 0.0005 0.0005
vt 0.9995 0.9995 0.0005
vt 0.0005 0.9995 0.0005
vt 0.0005 0.0005 0.0005
vt 0.4377 0.0011 0.0012
vt 0.5000 0.0005 0.0016
vt 0.5056 0.9847 0.9995
vt 0.4415 0.9844 0.9564
vt 0.5548 0.0011 0.0012
vt 0.5585 0.9844 0.9564
vt 0.4035 0.0061 0.9564
vt 0.5019 0.0060 0.9995
vt 0.5000 0.9053 0.0012
vt 0.3978 0.9052 0.0009
vt 0.5965 0.0061 0.9564
vt 0.5909 0.9072 0.0009
vt 0.5027 0.4747 0.4824
vt 0.4396 0.4965 0.4824
vt 0.5567 0.4965 0.4824
vt 0.5009 0.4718 0.4824
vt 0.4007 0.4521 0.4824
vt 0.5937 0.4531 0.4824
vt 0.7921 0.0005 0.4824
vt 0.7921 0.9995 0.4824
vt 0.2088 0.9995 0.4824
vt 0.2088 0.0005 0.4824
vt 0.5014 0.2362 0.2406
vt 0.5557 0.2475 0.2406
vt 0.3992 0.6797 0.2406
vt 0.8962 0.0005 0.2406
vt 0.8962 0.9995 0.2406
vt 0.1043 0.9995 0.2406
vt 0.1043 0.0005 0.2406
vt 0.4387 0.2475 0.2406
vt 0.5005 0.6897 0.2406
vt 0.5923 0.6812 0.2406
vt 0.5019 0.1621 0.9995
vt 0.4145 0.1116 0.9567
vt 0.4145 0.0005 0.9567
vt 0.5000 0.0005 0.9995
vt 0.5893 0.1116 0.9567
vt 0.5893 0.0005 0.9567
vt 0.9995 0.1089 0.0005
vt 0.9031 0.1108 0.2549
vt 0.9031 0.0024 0.2549
vt 0.9995 0.0005 0.0005
vt 0.0024 0.1164 0.0005
vt 0.1233 0.1145 0.2549
vt 0.1237 0.1831 0.2549
vt 0.0013 0.2236 0.0010
vt 0.0005 0.0005 0.0005
vt 0.1214 0.0005 0.2549
vt 0.7700 -0.0014 0.4864
vt 0.7700 0.1116 0.4864
vt 0.2282 0.1135 0.4864
vt 0.2299 0.1521 0.4864
vt 0.2300 0.0005 0.4864
vt 0.7720 0.1415 0.4864
vt 0.9027 0.1755 0.2549
vt 0.9987 0.2097 0.0010
vt 0.5000 0.9995 0.9995
vt 0.3994 0.9995 0.9567
vt 0.3994 0.8851 0.9567
vt 0.5000 0.8371 0.9995
vt 0.6025 0.9995 0.9567
vt 0.6025 0.8851 0.9567
vt 0.9995 0.8866 0.0005
vt 0.9012 0.8866 0.2549
vt 0.8970 0.8085 0.2549
vt 1.0025 0.7820 0.0012
vt 0.9995 0.9995 0.0005
vt 0.9012 0.9995 0.2549
vt 0.0005 0.8847 0.0005
vt 0.0988 0.8847 0.2549
vt 0.0988 0.9995 0.2549
vt 0.0005 0.9995 0.0005
vt 0.7718 0.8851 0.4864
vt 0.7739 0.8382 0.4864
vt 0.7718 0.9995 0.4864
vt 0.2319 0.9995 0.4864
vt 0.2338 0.8851 0.4864
vt 0.2337 0.8307 0.4864
vt 0.1030 0.7991 0.2549
vt 0.0013 0.7820 0.0012
# 90 texture coords

g barrier
usemtl Material__25
s 1
f 11/11/1 1/12/2 41/33/3 52/40/4 
f 12/15/5 42/34/6 41/33/7 1/12/8 
f 17/67/9 16/68/10 13/69/11 14/70/12 
f 18/71/13 17/67/14 14/70/15 15/72/16 
f 20/3/17 19/4/18 16/1/19 17/2/20 
f 21/6/21 20/3/22 17/2/23 18/5/24 
f 23/43/25 22/44/26 19/45/27 20/46/28 
f 24/47/29 23/43/30 20/46/31 21/48/32 
f 22/17/33 23/18/34 30/26/35 31/27/36 
f 24/21/37 32/28/38 30/26/39 23/18/40 
f 3/73/41 44/74/42 42/75/43 12/76/44 
f 5/77/45 45/78/46 44/74/47 3/73/48 
f 7/8/49 46/37/50 45/36/51 5/7/52 
f 9/49/53 47/50/54 46/51/55 7/52/56 
f 8/53/57 48/54/58 43/55/59 25/56/60 
f 6/57/61 49/58/62 48/54/63 8/53/64 
f 4/10/65 50/39/66 49/38/67 6/9/68 
f 2/79/69 51/80/70 50/81/71 4/82/72 
f 27/23/73 14/13/74 13/14/75 28/24/76 
f 15/16/77 14/13/78 27/23/79 29/25/80 
f 30/26/81 53/41/82 43/35/83 31/27/84 
f 54/42/85 53/41/86 30/26/87 32/28/88 
f 33/83/89 15/72/90 29/84/91 
f 18/71/92 15/72/93 33/83/94 34/85/95 
f 21/6/96 18/5/97 34/29/98 35/30/99 
f 24/47/100 21/48/101 35/59/102 36/60/103 
f 37/61/104 22/44/105 31/62/106 
f 19/45/107 22/44/108 37/61/109 38/63/110 
f 16/1/111 19/4/112 38/31/113 39/32/114 
f 13/69/115 16/68/116 39/86/117 40/87/118 
f 27/23/119 28/24/120 52/40/121 41/33/122 
f 42/34/123 29/25/124 27/23/125 41/33/126 
f 44/74/127 33/83/128 29/84/129 42/75/130 
f 34/85/131 33/83/132 44/74/133 45/78/134 
f 35/30/135 34/29/136 45/36/137 46/37/138 
f 36/60/139 35/59/140 46/51/141 47/50/142 
f 48/54/143 37/61/144 31/62/145 43/55/146 
f 38/63/147 37/61/148 48/54/149 49/58/150 
f 39/32/151 38/31/152 49/38/153 50/39/154 
f 40/87/155 39/86/156 50/81/157 51/80/158 
f 53/41/159 10/19/160 25/20/161 43/35/162 
f 26/22/163 10/19/164 53/41/165 54/42/166 
f 13/69/167 40/87/168 28/88/169 
f 52/89/170 28/88/171 51/80/172 
f 51/80/173 28/88/174 40/87/175 
f 11/90/176 52/89/177 2/79/178 
f 52/89/179 51/80/180 2/79/181 
f 32/64/182 24/47/183 36/60/184 
f 54/65/185 32/64/186 47/50/187 
f 32/64/188 36/60/189 47/50/190 
f 26/66/191 54/65/192 9/49/193 
f 9/49/194 54/65/195 47/50/196 
# 40 polygons - 12 triangles

