mtllib curbStone.mtl

#
# object curbStone
#

v  -14.4579 0.0000 41.4072
v  -11.7348 0.0263 56.7201
v  -7.7978 0.0243 67.3768
v  -3.8608 0.0263 74.6056
v  0.0762 0.0000 78.8984
v  -15.6718 0.0000 26.4049
v  -11.7348 0.7761 26.4049
v  -7.7978 0.9407 26.4049
v  -3.8608 0.7761 26.4049
v  0.0762 0.0000 26.4049
v  -15.6718 0.0000 -26.0885
v  -11.7348 0.7761 -26.0885
v  -7.7978 0.9407 -26.0885
v  -3.8608 0.7761 -26.0885
v  0.0762 0.0000 -26.0885
v  -14.4579 0.0000 -41.0908
v  -11.7348 0.0263 -56.4037
v  -7.7978 0.0243 -67.0604
v  -3.8608 0.0263 -74.0905
v  0.0762 0.0000 -78.5820
# 20 vertices

vn -0.1934 0.9811 0.0076
vn -0.1511 0.9882 0.0237
vn -0.0644 0.9977 0.0226
vn -0.1165 0.9931 0.0104
vn -0.1165 0.9931 0.0104
vn -0.0644 0.9977 0.0226
vn -0.0304 0.9994 0.0166
vn -0.0004 0.9999 0.0117
vn -0.0004 0.9999 0.0117
vn -0.0304 0.9994 0.0166
vn 0.0059 1.0000 0.0031
vn 0.1168 0.9931 0.0093
vn 0.1168 0.9931 0.0093
vn 0.0059 1.0000 0.0031
vn 0.0067 1.0000 -0.0000
vn 0.1886 0.9820 0.0072
vn -0.1907 0.9816 -0.0115
vn -0.1934 0.9811 0.0076
vn -0.1165 0.9931 0.0104
vn -0.1182 0.9929 -0.0117
vn -0.1182 0.9929 -0.0117
vn -0.1165 0.9931 0.0104
vn -0.0004 0.9999 0.0117
vn -0.0011 1.0000 -0.0096
vn -0.0011 1.0000 -0.0096
vn -0.0004 0.9999 0.0117
vn 0.1168 0.9931 0.0093
vn 0.1155 0.9933 -0.0041
vn 0.1155 0.9933 -0.0041
vn 0.1168 0.9931 0.0093
vn 0.1886 0.9820 0.0072
vn 0.1934 0.9811 -0.0000
vn -0.0177 0.9998 -0.0014
vn -0.1907 0.9816 -0.0115
vn -0.1182 0.9929 -0.0117
vn -0.0712 0.9972 -0.0243
vn -0.0712 0.9972 -0.0243
vn -0.1182 0.9929 -0.0117
vn -0.0011 1.0000 -0.0096
vn -0.0427 0.9988 -0.0225
vn -0.0427 0.9988 -0.0225
vn -0.0011 1.0000 -0.0096
vn 0.1155 0.9933 -0.0041
vn -0.0139 0.9998 -0.0166
vn -0.0139 0.9998 -0.0166
vn 0.1155 0.9933 -0.0041
vn 0.1934 0.9811 -0.0000
vn 0.0105 0.9998 -0.0140
# 48 vertex normals

vt 0.0775 0.7150 0.0005
vt 0.2502 0.4236 0.0285
vt 0.5000 0.2208 0.0263
vt 0.7497 0.0832 0.0285
vt 0.9995 0.0015 0.0005
vt 0.0005 1.0005 0.0005
vt 0.2502 1.0005 0.8246
vt 0.5000 1.0005 0.9995
vt 0.7497 1.0005 0.8246
vt 0.9995 1.0005 0.0005
vt 0.0005 1.9995 0.0005
vt 0.2503 1.9995 0.8246
vt 0.5000 1.9995 0.9995
vt 0.7497 1.9995 0.8246
vt 0.9995 1.9995 0.0005
vt 0.0775 2.2850 0.0005
vt 0.2503 2.5764 0.0285
vt 0.5000 2.7792 0.0263
vt 0.7498 2.9130 0.0285
vt 0.9995 2.9985 0.0005
# 20 texture coords

g curbStone
usemtl Material__2
s 1
f 6/6/1 1/1/2 2/2/3 7/7/4 
f 7/7/5 2/2/6 3/3/7 8/8/8 
f 8/8/9 3/3/10 4/4/11 9/9/12 
f 9/9/13 4/4/14 5/5/15 10/10/16 
f 11/11/17 6/6/18 7/7/19 12/12/20 
f 12/12/21 7/7/22 8/8/23 13/13/24 
f 13/13/25 8/8/26 9/9/27 14/14/28 
f 14/14/29 9/9/30 10/10/31 15/15/32 
f 16/16/33 11/11/34 12/12/35 17/17/36 
f 17/17/37 12/12/38 13/13/39 18/18/40 
f 18/18/41 13/13/42 14/14/43 19/19/44 
f 19/19/45 14/14/46 15/15/47 20/20/48 
# 12 polygons

