#
# object wallBrickTile
#

v  -0.1726 -0.5467 -0.0794
v  0.1728 -0.5467 -0.0794
v  -0.1726 -0.5467 -4.0510
v  0.1728 -0.5467 -4.0510
v  -0.1056 1.5268 -0.0794
v  0.1058 1.5268 -0.0794
v  -0.1056 1.5268 -4.0510
v  0.1058 1.5268 -4.0510
v  -0.1726 0.6681 -0.0794
v  0.1728 0.6681 -0.0794
v  0.1728 0.6681 -4.0510
v  -0.1726 0.6681 -4.0510
v  -0.1056 0.6694 -0.0794
v  0.1058 0.6694 -0.0794
v  0.1058 0.6694 -4.0510
v  -0.1056 0.6694 -4.0510
# 16 vertices

vn 1.0000 0.0000 -0.0000
vn 1.0000 0.0000 -0.0000
vn 0.7141 0.7000 -0.0000
vn 0.7141 0.7000 0.0000
vn 0.7141 0.7000 0.0000
vn 0.7141 0.7000 -0.0000
vn 0.0200 0.9998 0.0000
vn 0.0200 0.9998 0.0000
vn 1.0000 0.0000 -0.0000
vn 1.0000 0.0000 -0.0000
vn 1.0000 0.0000 -0.0000
vn 1.0000 0.0000 -0.0000
vn -1.0000 0.0000 -0.0000
vn -1.0000 0.0000 -0.0000
vn -0.7141 0.7000 -0.0000
vn -0.7141 0.7000 0.0000
vn -0.7141 0.7000 0.0000
vn -0.7141 0.7000 -0.0000
vn -0.0200 0.9998 0.0000
vn -0.0200 0.9998 0.0000
vn -1.0000 0.0000 -0.0000
vn -1.0000 0.0000 -0.0000
vn -1.0000 0.0000 -0.0000
vn -1.0000 0.0000 -0.0000
# 24 vertex normals

vt 0.0000 0.0000 0.0000
vt 1.0000 0.0000 0.0000
vt 0.0000 0.4620 0.0000
vt 1.0000 0.4632 0.0000
vt -0.0003 0.4689 0.0000
vt 1.0000 0.4701 0.0000
vt 0.0000 0.0000 0.0000
vt 1.0000 0.0000 0.0000
vt 0.0003 0.4629 0.0000
vt 1.0000 0.4647 0.0000
vt 0.0003 0.4690 0.0000
vt 1.0000 0.4687 0.0000
vt -0.0038 0.5631 0.0000
vt 0.9962 0.5631 0.0000
vt -0.0038 0.8625 0.0000
vt 0.9962 0.8625 0.0000
vt 0.0000 0.5669 0.0000
vt 1.0000 0.5669 0.0000
vt 0.0000 0.8588 0.0000
vt 1.0000 0.8588 0.0000
# 20 texture coords

g wallBrickTile
s 16
f 2/1/1 4/2/2 11/4/3 10/3/4 
f 10/3/5 11/4/6 15/6/7 14/5/8 
s 2
f 14/17/9 15/18/10 8/20/11 6/19/12 
s 64
f 3/7/13 1/8/14 9/10/15 12/9/16 
f 12/9/17 9/10/18 13/12/19 16/11/20 
s 2
f 16/13/21 13/14/22 5/16/23 7/15/24 
# 6 polygons

#
# object wallBrickTilePilar
#

v  -0.2498 -0.5455 0.2572
v  0.2489 -0.5455 0.2572
v  -0.2498 -0.5455 -0.2571
v  0.2489 -0.5455 -0.2571
v  -0.2498 2.0024 0.2572
v  0.2489 2.0024 0.2572
v  -0.2498 2.0024 -0.2571
v  0.2489 2.0024 -0.2571
# 8 vertices

vn 0.0000 -0.0000 1.0000
vn 0.0000 -0.0000 1.0000
vn 0.0000 -0.0000 1.0000
vn 0.0000 -0.0000 1.0000
vn 1.0000 -0.0000 -0.0000
vn 1.0000 -0.0000 -0.0000
vn 1.0000 -0.0000 -0.0000
vn 1.0000 -0.0000 -0.0000
vn 0.0000 0.0000 -1.0000
vn 0.0000 0.0000 -1.0000
vn 0.0000 0.0000 -1.0000
vn 0.0000 0.0000 -1.0000
vn -1.0000 -0.0000 -0.0000
vn -1.0000 -0.0000 -0.0000
vn -1.0000 -0.0000 -0.0000
vn -1.0000 -0.0000 -0.0000
# 16 vertex normals

vt 0.0000 0.6591 0.0000
vt 0.0019 0.5687 0.0000
vt 1.0019 0.6610 0.0000
vt 1.0019 0.5687 0.0000
vt 0.0000 0.7326 0.0000
vt -0.0000 0.6441 0.0000
vt 1.0000 0.7326 0.0000
vt 1.0000 0.6441 0.0000
vt -0.0019 0.7834 0.0000
vt -0.0019 0.7024 0.0000
vt 0.9981 0.7834 0.0000
vt 0.9981 0.7024 0.0000
vt 0.0000 0.8230 0.0000
vt -0.0000 0.7439 0.0000
vt 1.0000 0.8230 0.0000
vt 1.0000 0.7439 0.0000
# 16 texture coords

g wallBrickTilePilar
s 8
f 17/25/25 18/26/26 22/28/27 21/27/28 
s 16
f 18/29/29 20/30/30 24/32/31 22/31/32 
s 32
f 20/33/33 19/34/34 23/36/35 24/35/36 
s 64
f 19/21/37 17/22/38 21/24/39 23/23/40 
# 4 polygons

#
# object wallBrickTilePilar
#

v  -0.2894 1.9970 0.2969
v  0.2909 1.9970 0.2969
v  -0.2894 1.9970 -0.2986
v  0.2909 1.9970 -0.2986
v  -0.0684 2.3196 0.0702
v  0.0700 2.3196 0.0702
v  -0.0684 2.3196 -0.0718
v  0.0700 2.3196 -0.0718
v  -0.2894 2.0958 0.2969
v  0.2909 2.0958 0.2969
v  0.2909 2.0958 -0.2986
v  -0.2894 2.0958 -0.2986
v  0.0016 1.9966 0.0001
v  -0.2894 1.9970 0.2969
v  0.2909 1.9970 0.2969
v  0.2909 1.9970 0.2969
v  0.2909 1.9970 -0.2986
v  0.2909 1.9970 -0.2986
v  -0.2894 1.9970 -0.2986
v  -0.2894 1.9970 -0.2986
v  -0.2894 1.9970 0.2969
# 21 vertices

vn 0.0000 1.0000 -0.0000
vn 0.0000 1.0000 -0.0000
vn 0.0000 1.0000 -0.0000
vn 0.0000 1.0000 -0.0000
vn 0.0000 0.0000 1.0000
vn 0.0000 0.0000 1.0000
vn 0.0000 0.2647 0.9643
vn 0.0000 0.2647 0.9643
vn 0.0000 0.2647 0.9643
vn 0.0000 0.2647 0.9643
vn 0.0000 0.6363 0.7714
vn 0.0000 0.6363 0.7714
vn 1.0000 0.0000 -0.0000
vn 1.0000 0.0000 -0.0000
vn 0.9663 0.2575 -0.0000
vn 0.9663 0.2575 -0.0000
vn 0.9663 0.2575 -0.0000
vn 0.9663 0.2575 -0.0000
vn 0.7795 0.6265 -0.0000
vn 0.7795 0.6265 -0.0000
vn 0.0000 0.0000 -1.0000
vn 0.0000 0.0000 -1.0000
vn 0.0000 0.2647 -0.9643
vn 0.0000 0.2647 -0.9643
vn 0.0000 0.2647 -0.9643
vn 0.0000 0.2647 -0.9643
vn 0.0000 0.6363 -0.7714
vn 0.0000 0.6363 -0.7714
vn -1.0000 0.0000 -0.0000
vn -1.0000 0.0000 -0.0000
vn -0.9663 0.2575 -0.0000
vn -0.9663 0.2575 -0.0000
vn -0.9663 0.2575 -0.0000
vn -0.9663 0.2575 -0.0000
vn -0.7795 0.6265 -0.0000
vn -0.7795 0.6265 -0.0000
vn 0.0000 1.0000 -0.0016
vn 0.0000 1.0000 -0.0016
vn 0.0000 1.0000 -0.0016
vn -0.0017 1.0000 -0.0000
vn -0.0017 1.0000 -0.0000
vn -0.0017 1.0000 -0.0000
vn 0.0000 1.0000 0.0016
vn 0.0000 1.0000 0.0016
vn 0.0000 1.0000 0.0016
vn 0.0017 1.0000 -0.0000
vn 0.0017 1.0000 -0.0000
vn 0.0017 1.0000 -0.0000
# 48 vertex normals

vt 0.8270 0.8973 0.0000
vt 0.9888 0.8963 0.0000
vt 0.8268 0.9262 0.0000
vt 0.9886 0.9256 0.0000
vt 0.8796 0.9951 0.0000
vt 0.9296 0.9946 0.0000
vt 0.9011 0.8672 0.0000
vt 0.9878 0.8958 0.0000
vt 0.8278 0.8965 0.0000
vt 0.9005 0.8680 0.0000
vt 0.8278 0.9252 0.0000
vt 0.9881 0.9252 0.0000
vt 0.8805 0.9973 0.0000
vt 0.9293 0.9973 0.0000
vt 0.8305 0.8956 0.0000
vt 0.9826 0.8949 0.0000
vt 0.8307 0.9278 0.0000
vt 0.9832 0.9272 0.0000
vt 0.8810 0.9954 0.0000
vt 0.9275 0.9954 0.0000
vt 0.9030 0.8691 0.0000
vt 0.8293 0.8946 0.0000
vt 0.9826 0.8949 0.0000
vt 0.8296 0.9275 0.0000
vt 0.9827 0.9277 0.0000
vt 0.8810 0.9978 0.0000
vt 0.9272 0.9977 0.0000
vt 0.8992 0.8672 0.0000
vt 0.8900 0.9287 0.0000
vt 0.9364 0.9286 0.0000
vt 0.8900 0.9826 0.0000
vt 0.9368 0.9829 0.0000
# 32 texture coords

g wallBrickTilePilar
s 4
f 29/65/41 30/66/42 32/68/43 31/67/44 
s 8
f 25/37/45 26/38/46 34/40/47 33/39/48 
f 33/39/49 34/40/50 30/42/51 29/41/52 
s 16
f 26/45/53 28/44/54 35/48/55 34/47/56 
f 34/47/57 35/48/58 32/50/59 30/49/60 
s 32
f 28/58/61 27/59/62 36/61/63 35/60/64 
f 35/60/65 36/61/66 31/63/67 32/62/68 
s 64
f 27/51/69 25/52/70 33/54/71 36/53/72 
f 36/53/73 33/54/74 29/56/75 31/55/76 
s off
f 39/38/77 37/43/78 38/37/79 
f 40/45/80 41/44/81 37/46/82 
f 42/58/83 43/59/84 37/64/85 
f 45/52/86 37/57/87 44/51/88 
# 9 polygons - 4 triangles

#
# object wallBrickTile
#

v  -0.1224 1.5677 -0.0805
v  0.1215 1.5677 -0.0805
v  -0.1224 1.5677 -4.0516
v  0.1215 1.5677 -4.0516
v  -0.1224 1.5269 -0.0805
v  0.1215 1.5269 -0.0805
v  -0.1224 1.5269 -4.0516
v  0.1215 1.5269 -4.0516
# 8 vertices

vn 0.0000 1.0000 -0.0000
vn 0.0000 1.0000 -0.0000
vn 0.0000 1.0000 -0.0000
vn 0.0000 1.0000 -0.0000
vn 0.0000 -1.0000 -0.0000
vn 0.0000 -1.0000 -0.0000
vn 0.0000 -1.0000 -0.0000
vn 0.0000 -1.0000 -0.0000
vn 1.0000 0.0000 -0.0000
vn 1.0000 0.0000 -0.0000
vn 1.0000 0.0000 -0.0000
vn 1.0000 0.0000 -0.0000
vn -1.0000 0.0000 -0.0000
vn -1.0000 0.0000 -0.0000
vn -1.0000 0.0000 -0.0000
vn -1.0000 0.0000 -0.0000
# 16 vertex normals

vt 0.0015 0.4798 0.0000
vt 0.9986 0.4799 0.0000
vt 0.0007 0.4733 0.0000
vt 0.9989 0.4736 0.0000
vt 0.0000 0.5524 0.0000
vt 0.0000 0.4797 0.0000
vt 0.9981 0.5518 0.0000
vt 0.9981 0.4801 0.0000
vt 0.0005 0.5518 0.0000
vt 0.0020 0.4827 0.0000
vt 0.9992 0.5495 0.0000
vt 0.9989 0.4820 0.0000
# 12 texture coords

g wallBrickTile
s 2
f 48/75/89 46/73/90 47/74/91 49/76/92 
s 4
f 51/77/93 50/78/94 52/80/95 53/79/96 
s 16
f 49/70/97 47/69/98 51/71/99 53/72/100 
s 64
f 46/70/101 48/69/102 52/71/103 50/72/104 
# 4 polygons

